<svg xmlns="http://www.w3.org/2000/svg">
  <defs>
     <symbol id="icon-index" viewBox="0 0 100 125">
        <svg xmlns="http://www.w3.org/2000/svg" data-name="Layer 1" viewBox="0 0 100 125" x="0px" y="0px"><title>Artboard 47</title><path d="M72,27H59.24l-7.12-7.12A3,3,0,0,0,50,19H34a9,9,0,0,0-9,9V39a3,3,0,0,0,6,0V28a3,3,0,0,1,3-3H48.76l7.12,7.12A3,3,0,0,0,58,33H72a3,3,0,0,1,3,3V66a3,3,0,0,1-3,3H65a3,3,0,0,0,0,6h7a9,9,0,0,0,9-9V36A9,9,0,0,0,72,27Z"/><path d="M44,75h-.83A3.12,3.12,0,0,0,40,77.7,3,3,0,0,0,43,81h1a9,9,0,0,0,9-9V60a9,9,0,0,0-9-9h-.83A3.12,3.12,0,0,0,40,53.7,3,3,0,0,0,43,57h1a3,3,0,0,1,3,3V72A3,3,0,0,1,44,75Z"/><path d="M19,72a9,9,0,0,0,9,9h1a3,3,0,0,0,3-3.3A3.12,3.12,0,0,0,28.83,75H28a3,3,0,0,1-3-3V60a3,3,0,0,1,3-3h1a3,3,0,0,0,3-3.3A3.12,3.12,0,0,0,28.83,51H28a9,9,0,0,0-9,9Z"/> </svg>
    </symbol>
     <symbol id="icon-openapi" viewBox="0 0 200 200">
        <svg xmlns="http://www.w3.org/2000/svg" xmlns:xlink="http://www.w3.org/1999/xlink" version="1.1" x="0px" y="0px" viewBox="0 0 200 250" style="enable-background:new 0 0 200 200;" xml:space="preserve"><g><path d="M162.1,171.6c-18.9-0.3-18.9-28.4,0-28.7C181,143.2,181,171.2,162.1,171.6z M162.1,152.4c-6.3,0-6.3,9.5,0,9.6   C168.4,161.9,168.4,152.4,162.1,152.4z"/><path d="M129.2,104.5c0,6.3-9.5,6.3-9.6,0C119.7,98.2,129.2,98.2,129.2,104.5z"/><path d="M77.1,138.4c0,6.3-9.5,6.3-9.6,0C67.5,132.1,77,132.1,77.1,138.4z"/><path d="M77.1,85.3c0,6.3-9.5,6.3-9.6,0C67.5,79.1,77,79.1,77.1,85.3z"/><path d="M154.5,45.6c0,6.3-9.5,6.3-9.6,0C145,39.3,154.5,39.3,154.5,45.6z"/><path d="M133.4,162h-14.1c-1.3,0-2.5-0.5-3.4-1.4l-17.4-17.4H89c-6.2,0-6.3-9.5,0-9.6c0,0,11.5,0,11.5,0c1.3,0,2.5,0.5,3.4,1.4   l17.4,17.4h12.1C139.6,152.4,139.6,162,133.4,162z"/><path d="M110.1,114.5h-4.8c-0.5-4.8,2.3-14.5-4.8-14.8c-7.1,0.2-4.3,10-4.8,14.8c0,0-18.7,0-18.7,0c-0.5-4.8,2.3-14.5-4.8-14.8   c-7.1,0.2-4.2,10-4.8,14.8c0,0-19.3,0-19.3,0C45.1,95.9,20.1,88.2,7.1,102c-9.5,9.5-9.5,24.9,0,34.4c13,13.8,37.9,6.1,41.1-12.4   c0,0,61.9,0,61.9,0C116.3,124,116.4,114.5,110.1,114.5z M34.8,129.7c-14,13.5-34.4-6.9-20.9-20.9C27.9,95.3,48.3,115.7,34.8,129.7z   "/><path d="M195.8,75.1c-11.1-11.4-30.1,2.3-23.1,16.3c0,0-8.2,8.2-8.2,8.2h-23.2c-6.2,0-6.3,9.5,0,9.6c0,0,25.2,0,25.2,0   c1.3,0,2.5-0.5,3.4-1.4l9.7-9.7C193.5,105.2,207.1,86.2,195.8,75.1z M189,88.6c-4.4,4.4-11.2-2.3-6.8-6.8   C186.7,77.5,193.4,84.2,189,88.6z"/><path d="M29.7,57.2c2.1,0,4.2-0.5,6.2-1.4L57,76.9c4.4,4.4,11.2-2.3,6.8-6.8c0,0-21.1-21.1-21.1-21.1c2.5-5.3,1.6-11.9-2.8-16.3   c-5.6-5.6-14.7-5.6-20.3,0C10.4,41.2,17.4,57.6,29.7,57.2z M26.3,39.4c4.4-4.4,11.2,2.3,6.8,6.8C28.7,50.6,21.9,43.9,26.3,39.4z"/><path d="M110.1,90c1.2,0,2.4-0.5,3.4-1.4l23.3-23.3c5.9,3.9,22.4-1,16.3-9.6c-3.7-3.3-5.8-0.1-9.1,1.3c-4.5,1.2-7.9-4.9-4.5-8.1   c4.5-4.3-2.4-11.2-6.8-6.8c-4.3,4.1-5.4,11.1-2.8,16.3c0,0-23.3,23.3-23.3,23.3C103.7,84.7,106,90.2,110.1,90z"/></g></svg>
    </symbol>
     <symbol id="icon-pineapi" viewBox="0 0 64 80">
        <svg xmlns="http://www.w3.org/2000/svg" viewBox="0 0 64 80" x="0px" y="0px"><g><path d="M52.9922,36.2852c.0547-.4355-.1816-.8574-.582-1.0371-.7506-.3372-1.5433-.5815-2.3608-.7439,1.5059-5.8508-.0305-10.609-.1011-10.821-.1455-.4375-.5869-.7158-1.0303-.6797-.5493,.0454-1.0787,.1093-1.5961,.184-.0582-5.3448-1.7397-8.9984-1.817-9.162-.1924-.4087-.624-.6431-1.0811-.5596-.1173,.021-1.929,.3677-4.3738,1.8965-2.1449-7.4521-7.1664-11.9184-7.3923-12.1153-.376-.3291-.9395-.3291-1.3154,0-.2259,.1969-5.2352,4.6724-7.3796,12.1226-2.4515-1.5355-4.2697-1.8828-4.3875-1.9038-.4434-.0815-.8882,.1504-1.0806,.5596-.0768,.1636-1.7579,3.8168-1.817,9.1611-.5168-.0746-1.0465-.1377-1.5951-.183-.4644-.0415-.8853,.2427-1.0308,.6797-.0711,.212-1.6013,4.9709-.0954,10.8206-.8195,.1622-1.6139,.4067-2.366,.7443-.4014,.1797-.6377,.6016-.5825,1.0371,.0198,.1577,2.0858,14.9212,18.0415,16.56,.2406,3.8121,1.7139,6.3487,2.3721,7.2847,.3745,.5547,1.0005,.8711,1.6519,.8711,.2129,0,.4277-.0342,.6377-.1035l3.7188-1.2627c.625-.2188,1.1025-.7275,1.2783-1.3623,.1738-.6279,.0273-1.3008-.3867-1.7979-.7034-.8549-1.5858-2.1566-2.161-3.7853,14.8487-2.2411,16.8121-16.2505,16.8319-16.4042Zm-4.9626-2.0078c-3.2256-.0991-6.6558,.996-9.4896,3.1172-.5671-2.3254-1.6553-4.2731-2.7464-5.7736,2.187-2.7144,6.0285-5.79,12.4583-6.5419,.3451,1.5144,.8912,5.1108-.2224,9.1982Zm-18.541-4.2413c-.9071-1.0765-2.0473-2.1859-3.4631-3.2032,1.5798-5.4964,4.642-9.097,5.976-10.4544,1.3343,1.3526,4.3892,4.9388,5.9728,10.4564-1.4138,1.017-2.5551,2.1265-3.4613,3.2026-1.0081-1.1198-1.8151-1.7613-1.8997-1.8269-.3604-.2812-.8662-.2803-1.2266,0-.0847,.0656-.8908,.7066-1.8981,1.8256Zm15.8253-6.4676c-2.1551,.5-3.9999,1.2496-5.5721,2.1381-.6584-2.1248-1.5089-3.962-2.3951-5.5084,2.7493-2.9113,5.3945-4.1114,6.6572-4.5419,.4759,1.3199,1.3204,4.2206,1.31,7.9122ZM32,5.3965c1.442,1.492,4.8552,5.4998,6.3113,11.1962-.6685,.5262-1.3591,1.1307-2.0606,1.8426-1.8152-2.6732-3.486-4.0989-3.6081-4.2014-.3711-.3115-.9141-.3115-1.2852,0-.1221,.1024-1.7925,1.528-3.6076,4.2023-.7014-.7119-1.3922-1.3177-2.0605-1.844,1.4558-5.6962,4.8693-9.7038,6.3107-11.1957Zm-12.0024,10.2554c1.2578,.423,3.8878,1.6119,6.6568,4.5471-.8857,1.5461-1.735,3.3846-2.3934,5.5087-1.5723-.8883-3.4175-1.6374-5.5713-2.1376-.0113-3.6953,.8315-6.6002,1.3079-7.9182Zm-4.2495,9.4272c6.4296,.7518,10.2711,3.8273,12.4589,6.542-1.091,1.5006-2.1791,3.4485-2.7465,5.7744-2.8346-2.1221-6.2647-3.2158-9.4893-3.1171-1.1143-4.0879-.5682-7.6848-.2231-9.1993Zm21.0303,32.6641l-3.71,1.252c-.5525-.786-1.756-2.8585-2.0092-6.0214,.3127,.0097,.6185,.0262,.9408,.0262,.735,0,1.4359-.0342,2.1211-.0835,.6618,2.1093,1.7825,3.7676,2.6572,4.8267Zm-4.7783-6.7432c-14.8623,0-18.2285-11.1377-18.874-14.21,3.8311-1.3115,8.8853-.0312,12.3291,3.208,.2759,.2598,.6748,.3398,1.0293,.21,.3555-.1299,.6069-.4502,.6494-.8262,.5098-4.502,3.5444-7.8062,4.8662-9.0508,1.3223,1.2446,4.3564,4.5488,4.8672,9.0508,.042,.376,.293,.6963,.6484,.8262,.3545,.1318,.7529,.0508,1.0303-.21,3.4424-3.2383,8.4961-4.5195,12.3281-3.208-.6455,3.0723-4.0117,14.21-18.874,14.21Z"/></g></svg>
    </symbol>
     <symbol id="icon-pineenv" viewBox="0 0 64 80">
        <svg xmlns="http://www.w3.org/2000/svg" viewBox="0 0 64 80" x="0px" y="0px"><path d="m34.333,56c-.265,0-.529-.105-.726-.313-.159-.168-15.645-17.097,6.64-40.807.378-.404,1.012-.422,1.413-.044.402.378.422,1.011.044,1.413-20.953,22.294-7.236,37.432-6.642,38.065.377.402.357,1.035-.044,1.413-.193.182-.439.272-.686.272Z"/><path d="m29.209,39.798c-.198,0-.398-.059-.573-.181-.278-.195-2.797-1.945-5.535-3.386-.043-.022-.084-.049-.124-.077-1.282-.664-2.34-1.132-3.229-1.429-.524-.174-.807-.74-.632-1.265.174-.523.74-.809,1.265-.632,1.021.34,2.214.869,3.649,1.618.046.024.09.052.131.082,2.796,1.484,5.338,3.25,5.623,3.449.452.317.562.94.246,1.393-.195.278-.505.427-.82.427Z"/><path d="m30.249,33.973c-.304,0-.603-.138-.8-.398-.332-.441-.244-1.068.197-1.4l.505-.384c1.955-1.489,5.227-3.982,8.254-4.67,1.703-.377,3.146-.16,4.29.652.45.32.556.944.236,1.395-.32.449-.944.556-1.395.236-.671-.478-1.551-.584-2.692-.332-2.601.59-5.656,2.919-7.482,4.31l-.514.391c-.18.136-.391.201-.601.201Z"/><path d="m30.352,48.774c-.119,0-.24-.021-.358-.066-.516-.197-.773-.776-.576-1.292.162-.422,1.923-4.196,13.78-6.832.537-.113,1.074.221,1.193.76s-.221,1.073-.76,1.193c-10.671,2.371-12.334,5.564-12.347,5.596-.152.397-.532.642-.934.642Z"/><path d="m43.931,47.076c-2.21,0-4.892-.678-8.026-2.033-.312-.135-.533-.417-.59-.751-.031-.187-.733-4.573,2.229-6.929,2.537-2.014,6.824-1.787,12.743.68.334.139.567.448.608.809.021.188.496,4.639-2.612,6.946-1.146.853-2.602,1.278-4.352,1.278Zm-6.694-3.642c4.568,1.888,7.964,2.153,9.846.764,1.646-1.215,1.85-3.487,1.849-4.548-4.813-1.916-8.311-2.168-10.136-.727-1.555,1.229-1.619,3.488-1.559,4.511Z"/><path d="m18.676,39.06c-.344,0-.694-.038-1.049-.121-2.622-.619-4.573-3.534-5.798-8.665-.12-.503.163-1.014.651-1.18.235-.079,5.781-1.917,9.321.502,1.715,1.173,2.644,3.091,2.76,5.7.011.25-.072.495-.233.688-.116.139-2.618,3.076-5.652,3.076Zm-4.663-8.315c1.007,3.697,2.406,5.851,4.069,6.246,1.695.403,3.595-1.115,4.456-2.007-.151-1.757-.762-2.98-1.861-3.733-2.001-1.371-5.139-.869-6.663-.506Z"/><path d="m42.694,33.899c-.665,0-1.289-.109-1.87-.329-3.003-1.133-3.565-4.685-3.588-4.835-.038-.258.025-.521.179-.732.11-.154,2.767-3.771,6.867-3.984,2.678-.143,5.234,1.168,7.661,3.884.181.201.271.467.252.736-.019.269-.146.52-.352.693-3.597,3.038-6.663,4.567-9.149,4.567Zm-3.388-5.06c.204.748.794,2.327,2.234,2.863,1.31.488,3.779.29,8.19-3.224-1.771-1.729-3.566-2.562-5.345-2.464-2.514.131-4.404,2.039-5.08,2.824Zm-1.081-.252h.01-.01Z"/><path d="m36.221,22.269c-.215,0-.424-.069-.598-.198-.138-.103-3.374-2.56-2.719-5.909.654-3.347,4.979-6.081,12.853-8.129.429-.109.873.069,1.103.442.108.175,2.614,4.314.724,8.178-1.505,3.078-5.292,4.965-11.255,5.61-.036.004-.071.006-.107.006Zm9.269-12.095c-8.586,2.354-10.346,4.983-10.62,6.363-.33,1.659,1.049,3.127,1.666,3.688,4.914-.595,8.107-2.127,9.246-4.441,1.039-2.109.221-4.489-.292-5.61Z"/></svg>
    </symbol>
     <symbol id="icon-email" viewBox="0 0 96 120">
        <svg xmlns="http://www.w3.org/2000/svg" viewBox="0 0 96 120" x="0px" y="0px"><g data-name="1"><path d="M6.58,77.53H89.42V18.47H6.58ZM48,60.54l9.83-9.13L80.56,72.53H15.44L38.17,51.41ZM61.5,48,84.42,26.71V69.29ZM48,53.72,15.44,23.47H80.56ZM34.5,48,11.58,69.29V26.71Z"/></g></svg>
    </symbol>
         <symbol id="icon-person" viewBox="0 0 24 30">
        <svg xmlns="http://www.w3.org/2000/svg" xmlns:xlink="http://www.w3.org/1999/xlink" version="1.1" x="0px" y="0px" viewBox="0 0 24 30" enable-background="new 0 0 24 24" xml:space="preserve"><path d="M20.9970703,20.7880859c-0.0827026-3.5820313-2.272522-6.6470337-5.3723145-8.0178833  C17.0648193,11.6732788,18,9.9459839,18,8c0-3.3085938-2.6914063-6-6-6S6,4.6914063,6,8  c0,1.9453735,0.9345703,3.6721802,2.3739014,4.769165C5.2133789,14.1671143,3,17.3275757,3,21c0,0.5527344,0.4472656,1,1,1h16  c0.0068359,0.0009766,0.0146484,0.0009766,0.0195313,0c0.5527344,0,1-0.4472656,1-1  C21.0195313,20.9277344,21.0126953,20.8564453,20.9970703,20.7880859z M8,8c0-2.2060547,1.7939453-4,4-4s4,1.7939453,4,4  s-1.7939453,4-4,4S8,10.2060547,8,8z M5.0712891,20C5.5576172,16.6123047,8.4794922,14,12,14s6.4423828,2.6123047,6.9287109,6  H5.0712891z"/></svg>
    </symbol>
  </defs>
</svg>