<svg xmlns="http://www.w3.org/2000/svg" xmlns:xlink="http://www.w3.org/1999/xlink" version="1.1" x="0px" y="0px" viewBox="0 0 200 250" style="enable-background:new 0 0 200 200;" xml:space="preserve"><g><path d="M162.1,171.6c-18.9-0.3-18.9-28.4,0-28.7C181,143.2,181,171.2,162.1,171.6z M162.1,152.4c-6.3,0-6.3,9.5,0,9.6   C168.4,161.9,168.4,152.4,162.1,152.4z"/><path d="M129.2,104.5c0,6.3-9.5,6.3-9.6,0C119.7,98.2,129.2,98.2,129.2,104.5z"/><path d="M77.1,138.4c0,6.3-9.5,6.3-9.6,0C67.5,132.1,77,132.1,77.1,138.4z"/><path d="M77.1,85.3c0,6.3-9.5,6.3-9.6,0C67.5,79.1,77,79.1,77.1,85.3z"/><path d="M154.5,45.6c0,6.3-9.5,6.3-9.6,0C145,39.3,154.5,39.3,154.5,45.6z"/><path d="M133.4,162h-14.1c-1.3,0-2.5-0.5-3.4-1.4l-17.4-17.4H89c-6.2,0-6.3-9.5,0-9.6c0,0,11.5,0,11.5,0c1.3,0,2.5,0.5,3.4,1.4   l17.4,17.4h12.1C139.6,152.4,139.6,162,133.4,162z"/><path d="M110.1,114.5h-4.8c-0.5-4.8,2.3-14.5-4.8-14.8c-7.1,0.2-4.3,10-4.8,14.8c0,0-18.7,0-18.7,0c-0.5-4.8,2.3-14.5-4.8-14.8   c-7.1,0.2-4.2,10-4.8,14.8c0,0-19.3,0-19.3,0C45.1,95.9,20.1,88.2,7.1,102c-9.5,9.5-9.5,24.9,0,34.4c13,13.8,37.9,6.1,41.1-12.4   c0,0,61.9,0,61.9,0C116.3,124,116.4,114.5,110.1,114.5z M34.8,129.7c-14,13.5-34.4-6.9-20.9-20.9C27.9,95.3,48.3,115.7,34.8,129.7z   "/><path d="M195.8,75.1c-11.1-11.4-30.1,2.3-23.1,16.3c0,0-8.2,8.2-8.2,8.2h-23.2c-6.2,0-6.3,9.5,0,9.6c0,0,25.2,0,25.2,0   c1.3,0,2.5-0.5,3.4-1.4l9.7-9.7C193.5,105.2,207.1,86.2,195.8,75.1z M189,88.6c-4.4,4.4-11.2-2.3-6.8-6.8   C186.7,77.5,193.4,84.2,189,88.6z"/><path d="M29.7,57.2c2.1,0,4.2-0.5,6.2-1.4L57,76.9c4.4,4.4,11.2-2.3,6.8-6.8c0,0-21.1-21.1-21.1-21.1c2.5-5.3,1.6-11.9-2.8-16.3   c-5.6-5.6-14.7-5.6-20.3,0C10.4,41.2,17.4,57.6,29.7,57.2z M26.3,39.4c4.4-4.4,11.2,2.3,6.8,6.8C28.7,50.6,21.9,43.9,26.3,39.4z"/><path d="M110.1,90c1.2,0,2.4-0.5,3.4-1.4l23.3-23.3c5.9,3.9,22.4-1,16.3-9.6c-3.7-3.3-5.8-0.1-9.1,1.3c-4.5,1.2-7.9-4.9-4.5-8.1   c4.5-4.3-2.4-11.2-6.8-6.8c-4.3,4.1-5.4,11.1-2.8,16.3c0,0-23.3,23.3-23.3,23.3C103.7,84.7,106,90.2,110.1,90z"/></g><text x="0" y="215" fill="#000000" font-size="5px" font-weight="bold" font-family="'Helvetica Neue', Helvetica, Arial-Unicode, Arial, Sans-serif">Created by Dzmitry Valchuk</text><text x="0" y="220" fill="#000000" font-size="5px" font-weight="bold" font-family="'Helvetica Neue', Helvetica, Arial-Unicode, Arial, Sans-serif">from the Noun Project</text></svg>