<svg xmlns="http://www.w3.org/2000/svg" viewBox="0 0 64 80" x="0px" y="0px"><path d="m34.333,56c-.265,0-.529-.105-.726-.313-.159-.168-15.645-17.097,6.64-40.807.378-.404,1.012-.422,1.413-.044.402.378.422,1.011.044,1.413-20.953,22.294-7.236,37.432-6.642,38.065.377.402.357,1.035-.044,1.413-.193.182-.439.272-.686.272Z"/><path d="m29.209,39.798c-.198,0-.398-.059-.573-.181-.278-.195-2.797-1.945-5.535-3.386-.043-.022-.084-.049-.124-.077-1.282-.664-2.34-1.132-3.229-1.429-.524-.174-.807-.74-.632-1.265.174-.523.74-.809,1.265-.632,1.021.34,2.214.869,3.649,1.618.046.024.09.052.131.082,2.796,1.484,5.338,3.25,5.623,3.449.452.317.562.94.246,1.393-.195.278-.505.427-.82.427Z"/><path d="m30.249,33.973c-.304,0-.603-.138-.8-.398-.332-.441-.244-1.068.197-1.4l.505-.384c1.955-1.489,5.227-3.982,8.254-4.67,1.703-.377,3.146-.16,4.29.652.45.32.556.944.236,1.395-.32.449-.944.556-1.395.236-.671-.478-1.551-.584-2.692-.332-2.601.59-5.656,2.919-7.482,4.31l-.514.391c-.18.136-.391.201-.601.201Z"/><path d="m30.352,48.774c-.119,0-.24-.021-.358-.066-.516-.197-.773-.776-.576-1.292.162-.422,1.923-4.196,13.78-6.832.537-.113,1.074.221,1.193.76s-.221,1.073-.76,1.193c-10.671,2.371-12.334,5.564-12.347,5.596-.152.397-.532.642-.934.642Z"/><path d="m43.931,47.076c-2.21,0-4.892-.678-8.026-2.033-.312-.135-.533-.417-.59-.751-.031-.187-.733-4.573,2.229-6.929,2.537-2.014,6.824-1.787,12.743.68.334.139.567.448.608.809.021.188.496,4.639-2.612,6.946-1.146.853-2.602,1.278-4.352,1.278Zm-6.694-3.642c4.568,1.888,7.964,2.153,9.846.764,1.646-1.215,1.85-3.487,1.849-4.548-4.813-1.916-8.311-2.168-10.136-.727-1.555,1.229-1.619,3.488-1.559,4.511Z"/><path d="m18.676,39.06c-.344,0-.694-.038-1.049-.121-2.622-.619-4.573-3.534-5.798-8.665-.12-.503.163-1.014.651-1.18.235-.079,5.781-1.917,9.321.502,1.715,1.173,2.644,3.091,2.76,5.7.011.25-.072.495-.233.688-.116.139-2.618,3.076-5.652,3.076Zm-4.663-8.315c1.007,3.697,2.406,5.851,4.069,6.246,1.695.403,3.595-1.115,4.456-2.007-.151-1.757-.762-2.98-1.861-3.733-2.001-1.371-5.139-.869-6.663-.506Z"/><path d="m42.694,33.899c-.665,0-1.289-.109-1.87-.329-3.003-1.133-3.565-4.685-3.588-4.835-.038-.258.025-.521.179-.732.11-.154,2.767-3.771,6.867-3.984,2.678-.143,5.234,1.168,7.661,3.884.181.201.271.467.252.736-.019.269-.146.52-.352.693-3.597,3.038-6.663,4.567-9.149,4.567Zm-3.388-5.06c.204.748.794,2.327,2.234,2.863,1.31.488,3.779.29,8.19-3.224-1.771-1.729-3.566-2.562-5.345-2.464-2.514.131-4.404,2.039-5.08,2.824Zm-1.081-.252h.01-.01Z"/><path d="m36.221,22.269c-.215,0-.424-.069-.598-.198-.138-.103-3.374-2.56-2.719-5.909.654-3.347,4.979-6.081,12.853-8.129.429-.109.873.069,1.103.442.108.175,2.614,4.314.724,8.178-1.505,3.078-5.292,4.965-11.255,5.61-.036.004-.071.006-.107.006Zm9.269-12.095c-8.586,2.354-10.346,4.983-10.62,6.363-.33,1.659,1.049,3.127,1.666,3.688,4.914-.595,8.107-2.127,9.246-4.441,1.039-2.109.221-4.489-.292-5.61Z"/><text x="0" y="79" fill="#000000" font-size="5px" font-weight="bold" font-family="'Helvetica Neue', Helvetica, Arial-Unicode, Arial, Sans-serif">Created by Ian Rahmadi Kurniawan</text><text x="0" y="84" fill="#000000" font-size="5px" font-weight="bold" font-family="'Helvetica Neue', Helvetica, Arial-Unicode, Arial, Sans-serif">from the Noun Project</text></svg>