<svg xmlns="http://www.w3.org/2000/svg" viewBox="0 0 64 80" x="0px" y="0px"><g><path d="M52.9922,36.2852c.0547-.4355-.1816-.8574-.582-1.0371-.7506-.3372-1.5433-.5815-2.3608-.7439,1.5059-5.8508-.0305-10.609-.1011-10.821-.1455-.4375-.5869-.7158-1.0303-.6797-.5493,.0454-1.0787,.1093-1.5961,.184-.0582-5.3448-1.7397-8.9984-1.817-9.162-.1924-.4087-.624-.6431-1.0811-.5596-.1173,.021-1.929,.3677-4.3738,1.8965-2.1449-7.4521-7.1664-11.9184-7.3923-12.1153-.376-.3291-.9395-.3291-1.3154,0-.2259,.1969-5.2352,4.6724-7.3796,12.1226-2.4515-1.5355-4.2697-1.8828-4.3875-1.9038-.4434-.0815-.8882,.1504-1.0806,.5596-.0768,.1636-1.7579,3.8168-1.817,9.1611-.5168-.0746-1.0465-.1377-1.5951-.183-.4644-.0415-.8853,.2427-1.0308,.6797-.0711,.212-1.6013,4.9709-.0954,10.8206-.8195,.1622-1.6139,.4067-2.366,.7443-.4014,.1797-.6377,.6016-.5825,1.0371,.0198,.1577,2.0858,14.9212,18.0415,16.56,.2406,3.8121,1.7139,6.3487,2.3721,7.2847,.3745,.5547,1.0005,.8711,1.6519,.8711,.2129,0,.4277-.0342,.6377-.1035l3.7188-1.2627c.625-.2188,1.1025-.7275,1.2783-1.3623,.1738-.6279,.0273-1.3008-.3867-1.7979-.7034-.8549-1.5858-2.1566-2.161-3.7853,14.8487-2.2411,16.8121-16.2505,16.8319-16.4042Zm-4.9626-2.0078c-3.2256-.0991-6.6558,.996-9.4896,3.1172-.5671-2.3254-1.6553-4.2731-2.7464-5.7736,2.187-2.7144,6.0285-5.79,12.4583-6.5419,.3451,1.5144,.8912,5.1108-.2224,9.1982Zm-18.541-4.2413c-.9071-1.0765-2.0473-2.1859-3.4631-3.2032,1.5798-5.4964,4.642-9.097,5.976-10.4544,1.3343,1.3526,4.3892,4.9388,5.9728,10.4564-1.4138,1.017-2.5551,2.1265-3.4613,3.2026-1.0081-1.1198-1.8151-1.7613-1.8997-1.8269-.3604-.2812-.8662-.2803-1.2266,0-.0847,.0656-.8908,.7066-1.8981,1.8256Zm15.8253-6.4676c-2.1551,.5-3.9999,1.2496-5.5721,2.1381-.6584-2.1248-1.5089-3.962-2.3951-5.5084,2.7493-2.9113,5.3945-4.1114,6.6572-4.5419,.4759,1.3199,1.3204,4.2206,1.31,7.9122ZM32,5.3965c1.442,1.492,4.8552,5.4998,6.3113,11.1962-.6685,.5262-1.3591,1.1307-2.0606,1.8426-1.8152-2.6732-3.486-4.0989-3.6081-4.2014-.3711-.3115-.9141-.3115-1.2852,0-.1221,.1024-1.7925,1.528-3.6076,4.2023-.7014-.7119-1.3922-1.3177-2.0605-1.844,1.4558-5.6962,4.8693-9.7038,6.3107-11.1957Zm-12.0024,10.2554c1.2578,.423,3.8878,1.6119,6.6568,4.5471-.8857,1.5461-1.735,3.3846-2.3934,5.5087-1.5723-.8883-3.4175-1.6374-5.5713-2.1376-.0113-3.6953,.8315-6.6002,1.3079-7.9182Zm-4.2495,9.4272c6.4296,.7518,10.2711,3.8273,12.4589,6.542-1.091,1.5006-2.1791,3.4485-2.7465,5.7744-2.8346-2.1221-6.2647-3.2158-9.4893-3.1171-1.1143-4.0879-.5682-7.6848-.2231-9.1993Zm21.0303,32.6641l-3.71,1.252c-.5525-.786-1.756-2.8585-2.0092-6.0214,.3127,.0097,.6185,.0262,.9408,.0262,.735,0,1.4359-.0342,2.1211-.0835,.6618,2.1093,1.7825,3.7676,2.6572,4.8267Zm-4.7783-6.7432c-14.8623,0-18.2285-11.1377-18.874-14.21,3.8311-1.3115,8.8853-.0312,12.3291,3.208,.2759,.2598,.6748,.3398,1.0293,.21,.3555-.1299,.6069-.4502,.6494-.8262,.5098-4.502,3.5444-7.8062,4.8662-9.0508,1.3223,1.2446,4.3564,4.5488,4.8672,9.0508,.042,.376,.293,.6963,.6484,.8262,.3545,.1318,.7529,.0508,1.0303-.21,3.4424-3.2383,8.4961-4.5195,12.3281-3.208-.6455,3.0723-4.0117,14.21-18.874,14.21Z"/></g><text x="0" y="79" fill="#000000" font-size="5px" font-weight="bold" font-family="'Helvetica Neue', Helvetica, Arial-Unicode, Arial, Sans-serif">Created by Andi Nur Abdillah</text><text x="0" y="84" fill="#000000" font-size="5px" font-weight="bold" font-family="'Helvetica Neue', Helvetica, Arial-Unicode, Arial, Sans-serif">from the Noun Project</text></svg>