<svg xmlns="http://www.w3.org/2000/svg" xmlns:xlink="http://www.w3.org/1999/xlink" version="1.1" x="0px" y="0px" viewBox="0 0 24 30" enable-background="new 0 0 24 24" xml:space="preserve"><path d="M20.9970703,20.7880859c-0.0827026-3.5820313-2.272522-6.6470337-5.3723145-8.0178833  C17.0648193,11.6732788,18,9.9459839,18,8c0-3.3085938-2.6914063-6-6-6S6,4.6914063,6,8  c0,1.9453735,0.9345703,3.6721802,2.3739014,4.769165C5.2133789,14.1671143,3,17.3275757,3,21c0,0.5527344,0.4472656,1,1,1h16  c0.0068359,0.0009766,0.0146484,0.0009766,0.0195313,0c0.5527344,0,1-0.4472656,1-1  C21.0195313,20.9277344,21.0126953,20.8564453,20.9970703,20.7880859z M8,8c0-2.2060547,1.7939453-4,4-4s4,1.7939453,4,4  s-1.7939453,4-4,4S8,10.2060547,8,8z M5.0712891,20C5.5576172,16.6123047,8.4794922,14,12,14s6.4423828,2.6123047,6.9287109,6  H5.0712891z"/><text x="0" y="39" fill="#000000" font-size="5px" font-weight="bold" font-family="'Helvetica Neue', Helvetica, Arial-Unicode, Arial, Sans-serif">Created by YOSHA</text><text x="0" y="44" fill="#000000" font-size="5px" font-weight="bold" font-family="'Helvetica Neue', Helvetica, Arial-Unicode, Arial, Sans-serif">from the Noun Project</text></svg>