<svg xmlns="http://www.w3.org/2000/svg" data-name="Layer 1" viewBox="0 0 100 125" x="0px" y="0px"><title>Artboard 47</title><path d="M72,27H59.24l-7.12-7.12A3,3,0,0,0,50,19H34a9,9,0,0,0-9,9V39a3,3,0,0,0,6,0V28a3,3,0,0,1,3-3H48.76l7.12,7.12A3,3,0,0,0,58,33H72a3,3,0,0,1,3,3V66a3,3,0,0,1-3,3H65a3,3,0,0,0,0,6h7a9,9,0,0,0,9-9V36A9,9,0,0,0,72,27Z"/><path d="M44,75h-.83A3.12,3.12,0,0,0,40,77.7,3,3,0,0,0,43,81h1a9,9,0,0,0,9-9V60a9,9,0,0,0-9-9h-.83A3.12,3.12,0,0,0,40,53.7,3,3,0,0,0,43,57h1a3,3,0,0,1,3,3V72A3,3,0,0,1,44,75Z"/><path d="M19,72a9,9,0,0,0,9,9h1a3,3,0,0,0,3-3.3A3.12,3.12,0,0,0,28.83,75H28a3,3,0,0,1-3-3V60a3,3,0,0,1,3-3h1a3,3,0,0,0,3-3.3A3.12,3.12,0,0,0,28.83,51H28a9,9,0,0,0-9,9Z"/><text x="0" y="115" fill="#000000" font-size="5px" font-weight="bold" font-family="'Helvetica Neue', Helvetica, Arial-Unicode, Arial, Sans-serif">Created by Gregor Cresnar</text><text x="0" y="120" fill="#000000" font-size="5px" font-weight="bold" font-family="'Helvetica Neue', Helvetica, Arial-Unicode, Arial, Sans-serif">from the Noun Project</text></svg>